<svg viewBox="0 0 517.9503155968744 93.41230538960505" height="71.3320060151336" width="395.52"><g transform="matrix(1,0,0,1,122.4303155968744,15.976631050004514)"><svg viewBox="0 0 395.52 61.459043289596025" height="61.459043289596025" width="395.52"><g id="textblocktransform"><svg viewBox="0 0 395.52 61.459043289596025" height="61.459043289596025" width="395.52" id="textblock"><g><svg viewBox="0 0 395.52 61.459043289596025" height="61.459043289596025" width="395.52"><g transform="matrix(1,0,0,1,0,0)"><svg width="395.52" viewBox="1.9300000667572021 -36.22999954223633 236.28001403808594 36.720001220703125" height="61.459043289596025" data-palette-color="#b7feae"><path d="M27.54-9.03L27.54-9.03Q27.54-4.54 24.26-2.03 20.97 0.49 14.89 0.49L14.89 0.49Q3.74 0.49 1.93-8.25L1.93-8.25 6.45-9.16Q7.13-6.01 9.28-4.58 11.43-3.15 15.01-3.15L15.01-3.15Q18.9-3.15 20.91-4.66 22.92-6.18 22.92-8.96L22.92-8.96Q22.92-10.67 22.13-11.74 21.34-12.82 20.04-13.5 18.75-14.18 17.13-14.61 15.5-15.04 13.84-15.45L13.84-15.45Q9.91-16.48 8.24-17.29 6.57-18.09 5.57-19.13 4.57-20.17 4.05-21.51 3.54-22.85 3.54-24.66L3.54-24.66Q3.54-28.88 6.51-31.16 9.47-33.45 15.01-33.45L15.01-33.45Q20.19-33.45 22.92-31.64 25.66-29.83 26.73-25.54L26.73-25.54 22.14-24.73Q21.56-27.47 19.8-28.7 18.04-29.93 14.99-29.93L14.99-29.93Q8.08-29.93 8.08-24.73L8.08-24.73Q8.08-23.27 8.73-22.35 9.38-21.44 10.49-20.84 11.6-20.24 13.07-19.85 14.55-19.46 16.24-19.02L16.24-19.02Q19.63-18.16 21.12-17.59 22.61-17.02 23.77-16.28 24.93-15.55 25.76-14.55 26.59-13.55 27.06-12.21 27.54-10.86 27.54-9.03ZM56.78-13.23L56.78-13.23Q56.78-6.57 53.72-3.04 50.66 0.49 44.87 0.49L44.87 0.49Q39.21 0.49 36.19-3.08 33.18-6.64 33.18-13.23L33.18-13.23Q33.18-20.04 36.26-23.47 39.35-26.9 45.02-26.9L45.02-26.9Q50.97-26.9 53.88-23.51 56.78-20.12 56.78-13.23ZM52.17-13.23L52.17-13.23Q52.17-18.48 50.5-21.07 48.83-23.66 45.09-23.66L45.09-23.66Q41.31-23.66 39.55-21.02 37.79-18.38 37.79-13.23L37.79-13.23Q37.79-8.11 39.55-5.43 41.31-2.76 44.82-2.76L44.82-2.76Q48.7-2.76 50.44-5.37 52.17-7.98 52.17-13.23ZM63.18-13.23L63.18-13.23Q63.18-19.82 66.33-23.36 69.48-26.9 75.43-26.9L75.43-26.9Q79.88-26.9 82.76-24.77 85.64-22.63 86.32-19.02L86.32-19.02 81.64-18.68Q81.25-20.9 79.68-22.18 78.12-23.46 75.24-23.46L75.24-23.46Q71.38-23.46 69.59-21.07 67.79-18.68 67.79-13.33L67.79-13.33Q67.79-7.91 69.59-5.41 71.38-2.91 75.21-2.91L75.21-2.91Q77.85-2.91 79.58-4.2 81.32-5.49 81.73-8.15L81.73-8.15 86.37-7.86Q86.05-5.52 84.6-3.6 83.15-1.68 80.76-0.6 78.36 0.49 75.41 0.49L75.41 0.49Q69.43 0.49 66.3-3.03 63.18-6.54 63.18-13.23ZM108.2-26.42L108.2-3.47 117.47-3.47 117.47 0 93.5 0 93.5-3.47 103.8-3.47 103.8-22.95 96.01-22.95 96.01-26.42 108.2-26.42ZM108.2-31.54L103.31-31.54 103.31-36.23 108.2-36.23 108.2-31.54ZM146.89-2.71L146.89-2.71Q147.52-2.71 148.33-2.88L148.33-2.88 148.33-0.15Q146.67 0.24 144.94 0.24L144.94 0.24Q142.49 0.24 141.38-1.04 140.27-2.32 140.13-5.05L140.13-5.05 139.98-5.05Q138.39-2.1 136.23-0.81 134.07 0.49 130.9 0.49L130.9 0.49Q127.04 0.49 125.09-1.61 123.13-3.71 123.13-7.37L123.13-7.37Q123.13-15.89 134.22-16.02L134.22-16.02 139.98-16.11 139.98-17.55Q139.98-20.75 138.69-22.16 137.39-23.56 134.56-23.56L134.56-23.56Q131.68-23.56 130.41-22.53 129.14-21.51 128.9-19.36L128.9-19.36 124.31-19.78Q125.43-26.9 134.63-26.9L134.63-26.9Q139.52-26.9 141.97-24.62 144.42-22.34 144.42-18.02L144.42-18.02 144.42-6.64Q144.42-4.69 144.94-3.7 145.45-2.71 146.89-2.71ZM132.02-2.86L132.02-2.86Q134.37-2.86 136.17-3.98 137.98-5.1 138.98-6.98 139.98-8.86 139.98-10.86L139.98-10.86 139.98-13.04 135.34-12.94Q132.46-12.89 130.95-12.3 129.43-11.72 128.59-10.51 127.75-9.3 127.75-7.3L127.75-7.3Q127.75-5.3 128.84-4.08 129.92-2.86 132.02-2.86ZM167.98-36.23L167.98-3.47 177.26-3.47 177.26 0 153.28 0 153.28-3.47 163.59-3.47 163.59-32.76 156.53-32.76 156.53-36.23 167.98-36.23ZM238.21-3.81L238.21 0 211.8 0 211.8-3.49 231.77-29.13 213.58-29.13 213.58-32.93 237.07-32.93 237.07-29.54 217.1-3.81 238.21-3.81Z" opacity="1" transform="matrix(1,0,0,1,0,0)" fill="#b7feae" class="wordmark-text-0" data-fill-palette-color="primary" id="text-0"></path></svg></g></svg></g></svg></g></svg></g><g><svg viewBox="0 0 93.41230538960505 93.41230538960505" height="93.41230538960505" width="93.41230538960505"><g><svg></svg></g><g id="icon-0"><svg viewBox="0 0 93.41230538960505 93.41230538960505" height="93.41230538960505" width="93.41230538960505"><g><path d="M0 46.706c0-25.795 20.911-46.706 46.706-46.706 25.795 0 46.706 20.911 46.706 46.706 0 25.795-20.911 46.706-46.706 46.706-25.795 0-46.706-20.911-46.706-46.706zM46.706 87.87c22.734 0 41.164-18.43 41.164-41.164 0-22.734-18.43-41.164-41.164-41.164-22.734 0-41.164 18.43-41.164 41.164 0 22.734 18.43 41.164 41.164 41.164z" data-fill-palette-color="tertiary" fill="#b7feae" stroke="transparent"></path></g><g transform="matrix(1,0,0,1,33.07764888096914,23.216282120042667)"><svg viewBox="0 0 27.257007627666766 46.97974114951972" height="46.97974114951972" width="27.257007627666766"><g><svg xmlns="http://www.w3.org/2000/svg" xmlns:xlink="http://www.w3.org/1999/xlink" version="1.1" x="0" y="0" viewBox="21.679107666015625 1 56.85826873779297 98" enable-background="new 0 0 100 100" xml:space="preserve" height="46.97974114951972" width="27.257007627666766" class="icon-b-0" data-fill-palette-color="accent" id="b-0"><g fill="#748789" data-fill-palette-color="accent"><path fill-rule="evenodd" clip-rule="evenodd" d="M30.545 28.822C29.38 36.039 30.875 43.672 37.045 47.863 30.758 19.81 45.756 8.664 59.646 1 43.466 24.046 76.542 24.644 78.423 51.13 80.028 73.71 64.507 91.317 46.639 99 46.845 76.175 24.089 73.067 21.801 54.397 20.905 47.094 25.062 33.766 30.545 28.822" fill="#748789" data-fill-palette-color="accent"></path></g></svg></g></svg></g></svg></g></svg></g></svg>